HIERARCHY
ROOT root
{
	OFFSET	0	13.1	24.9
	CHANNELS 6  Xposition Yposition Zposition Xrotation Yrotation Zrotation
	JOINT spine_1
	{
		OFFSET	0	9.99999	0
		CHANNELS 3  Xrotation Yrotation Zrotation
		JOINT spine_2
		{
			OFFSET	0	112	-10
			CHANNELS 3  Xrotation Yrotation Zrotation
			JOINT spine_3
			{
				OFFSET	0	206.5	19.3
				CHANNELS 3  Xrotation Yrotation Zrotation
				JOINT spine_4
				{
					OFFSET	0	110.4	14.6
					CHANNELS 3  Xrotation Yrotation Zrotation
					JOINT neck_1
					{
						OFFSET	0	71.8	-50.3
						CHANNELS 3  Xrotation Yrotation Zrotation
						JOINT neck_2
						{
							OFFSET	0	86.2	-25.8
							CHANNELS 3  Xrotation Yrotation Zrotation
							JOINT head_ee
							{
								OFFSET	0	179.8	-8.7
								CHANNELS 3  Xrotation Yrotation Zrotation
								End Site
								{
									OFFSET	1	0	0
								}
							}
						}
					}
					JOINT left_clavicle
					{
						OFFSET	-43.2	22.4	-70.8
						CHANNELS 3  Xrotation Yrotation Zrotation
						JOINT left_shoulder
						{
							OFFSET	-93.9	-5.79999	48.7
							CHANNELS 3  Xrotation Yrotation Zrotation
							JOINT left_elbow
							{
								OFFSET	-291.4	-30.8	15.2
								CHANNELS 3  Xrotation Yrotation Zrotation
								JOINT left_lowarm_twist
								{
									OFFSET	-110.7	-3.89999	13.6
									CHANNELS 3  Xrotation Yrotation Zrotation
									JOINT left_hand
									{
										OFFSET	-110.7	-3.89999	13.6
										CHANNELS 3  Xrotation Yrotation Zrotation
										JOINT left_ee
										{
											OFFSET	-80.8	-5.10001	12.1
											CHANNELS 3  Xrotation Yrotation Zrotation
											End Site
											{
												OFFSET	1	0	0
											}
										}
									}
								}
							}
						}
					}
					JOINT right_clavicle
					{
						OFFSET	43.2	22.4	-70.8
						CHANNELS 3  Xrotation Yrotation Zrotation
						JOINT right_shoulder
						{
							OFFSET	93.9	-5.79999	48.7
							CHANNELS 3  Xrotation Yrotation Zrotation
							JOINT right_elbow
							{
								OFFSET	291.4	-30.8	15.2
								CHANNELS 3  Xrotation Yrotation Zrotation
								JOINT right_lowarm_twist
								{
									OFFSET	110.7	-3.89999	13.6
									CHANNELS 3  Xrotation Yrotation Zrotation
									JOINT right_hand
									{
										OFFSET	110.7	-3.89999	13.6
										CHANNELS 3  Xrotation Yrotation Zrotation
										JOINT right_ee
										{
											OFFSET	80.8	-5.10001	12.1
											CHANNELS 3  Xrotation Yrotation Zrotation
											End Site
											{
												OFFSET	1	0	0
											}
										}
									}
								}
							}
						}
					}
				}
			}
		}
	}
	JOINT left_hip
	{
		OFFSET	-82.8	-127.5	0.300001
		CHANNELS 3  Xrotation Yrotation Zrotation
		JOINT left_knee
		{
			OFFSET	-28.2	-396.7	2.2
			CHANNELS 3  Xrotation Yrotation Zrotation
			JOINT left_ankle
			{
				OFFSET	-11.7	-411.3	35.4
				CHANNELS 3  Xrotation Yrotation Zrotation
				JOINT left_toes
				{
					OFFSET	0	-60	-88.6
					CHANNELS 3  Xrotation Yrotation Zrotation
					JOINT left_foot_ee
					{
						OFFSET	-22.5	-16.5	-42.2
						CHANNELS 3  Xrotation Yrotation Zrotation
						End Site
						{
							OFFSET	1	0	0
						}
					}
				}
			}
		}
	}
	JOINT right_hip
	{
		OFFSET	82.8	-127.5	0.300001
		CHANNELS 3  Xrotation Yrotation Zrotation
		JOINT right_knee
		{
			OFFSET	28.2	-396.7	2.2
			CHANNELS 3  Xrotation Yrotation Zrotation
			JOINT right_ankle
			{
				OFFSET	11.7	-411.3	35.4
				CHANNELS 3  Xrotation Yrotation Zrotation
				JOINT right_toes
				{
					OFFSET	0	-60	-88.6
					CHANNELS 3  Xrotation Yrotation Zrotation
					JOINT right_foot_ee
					{
						OFFSET	22.5	-16.5	-42.2
						CHANNELS 3  Xrotation Yrotation Zrotation
						End Site
						{
							OFFSET	1	0	0
						}
					}
				}
			}
		}
	}
}
MOTION
Frames: 6
Frame Time: 0.02
1041.4 574.639 -1682.42 -4.18963138759 21.9168816451 2.17943755727 3.17741 0.2169 0.619702 3.1776 0.177028 0.632247 3.1795 0.0764837 0.652092 3.17895 0.178508 0.631831 -8.37128 11.467 1.86194 -8.42727 20.1564 4.42819 -0.0 0.0 -0.0 4.19231 12.2733 8.47264 -42.1493 -27.3033 54.9716 1.02777 -26.9813 0.246575 73.6027 -3.12252 -8.20883 -0.153191 11.6212 3.82244 -0.0 0.0 -0.0 10.6464 -1.76985 -20.882 -15.6382 26.92 -58.1106 1.2591 31.9512 -0.360474 -2.91392 0.11174 -0.355255 0.719772 13.7078 0.985505 0.0 0.0 0.0 34.1301 -16.4815 -8.90228 -1.91747 0.0741881 0.2849 -2.68037 7.14041 0.394722 34.7639 -0.0 -0.0 -0.0 0.0 -0.0 -15.6856 25.3056 -0.566691 -8.63436 -0.258045 -1.29874 41.5594 -19.5517 5.15941 15.1223 -0.0 -0.0 0.0 0.0 0.0 
1041.4 574.639 -1682.42 -4.20311140727 22.3683687519 2.21520150964 3.17741 0.2169 0.619702 3.1776 0.177028 0.632247 3.1795 0.0764837 0.652092 3.17895 0.178508 0.631831 -8.37128 11.467 1.86194 -8.42727 20.1564 4.42819 -0.0 0.0 -0.0 4.19231 12.2733 8.47264 -42.1493 -27.3033 54.9716 1.02777 -26.9813 0.246575 73.6027 -3.12252 -8.20883 -0.153191 11.6212 3.82244 -0.0 0.0 -0.0 10.6464 -1.76985 -20.882 -15.6382 26.92 -58.1106 1.2591 31.9512 -0.360474 -2.91392 0.11174 -0.355255 0.719772 13.7078 0.985505 0.0 0.0 0.0 34.1301 -16.4815 -8.90228 -1.91747 0.0741881 0.2849 -2.68037 7.14041 0.394722 34.7639 -0.0 -0.0 -0.0 0.0 -0.0 -15.6856 25.3056 -0.566691 -8.63436 -0.258045 -1.29874 41.5594 -19.5517 5.15941 15.1223 -0.0 -0.0 0.0 0.0 0.0 
1041.4 574.639 -1682.42 -4.22298351522 23.0135433059 2.26671480894 3.17741 0.2169 0.619702 3.1776 0.177028 0.632247 3.1795 0.0764837 0.652092 3.17895 0.178508 0.631831 -8.37128 11.467 1.86194 -8.42727 20.1564 4.42819 -0.0 0.0 -0.0 4.19231 12.2733 8.47264 -42.1493 -27.3033 54.9716 1.02777 -26.9813 0.246575 73.6027 -3.12252 -8.20883 -0.153191 11.6212 3.82244 -0.0 0.0 -0.0 10.6464 -1.76985 -20.882 -15.6382 26.92 -58.1106 1.2591 31.9512 -0.360474 -2.91392 0.11174 -0.355255 0.719772 13.7078 0.985505 0.0 0.0 0.0 34.1301 -16.4815 -8.90228 -1.91747 0.0741881 0.2849 -2.68037 7.14041 0.394722 34.7639 -0.0 -0.0 -0.0 0.0 -0.0 -15.6856 25.3056 -0.566691 -8.63436 -0.258045 -1.29874 41.5594 -19.5517 5.15941 15.1223 -0.0 -0.0 0.0 0.0 0.0 
1035.28919129 597.747 -1696.95181396 -4.4955491839 23.0315362673 4.06935412802 2.87429 0.104547 0.159472 2.8743 0.0941878 0.165801 2.87457 0.0662868 0.178794 2.87454 0.0936921 0.166082 -10.0714 11.1729 2.31327 -10.1879 19.4983 5.08422 -0.0 0.0 -0.0 4.25863 12.5267 8.58821 -41.414 -28.0297 53.8888 1.12394 -29.1068 0.291798 73.7709 -3.14075 -8.22038 0.0791985 10.3848 4.80615 -0.0 0.0 -0.0 10.4813 -3.28433 -20.4322 -16.5444 26.6612 -58.7983 1.18602 30.4341 -0.322625 -5.99558 0.249433 -0.72436 0.489301 12.0346 1.81715 0.0 0.0 0.0 33.4784 -16.0771 -10.0248 -4.7387 0.165896 0.708121 -6.7782 9.58161 1.00577 34.816 -0.0 -0.0 -0.0 0.0 -0.0 -16.0153 24.8187 -0.874804 -8.80936 -0.261239 -1.3254 41.2728 -17.9566 5.09879 15.2971 -0.0 -0.0 0.0 0.0 0.0 
1035.16181619 597.747 -1696.89759174 -4.51255139792 23.5331302315 4.11236873127 2.87429 0.104547 0.159472 2.8743 0.0941878 0.165801 2.87457 0.0662868 0.178794 2.87454 0.0936921 0.166082 -10.0714 11.1729 2.31327 -10.1879 19.4983 5.08422 -0.0 0.0 -0.0 4.25863 12.5267 8.58821 -41.414 -28.0297 53.8888 1.12394 -29.1068 0.291798 73.7709 -3.14075 -8.22038 0.0791985 10.3848 4.80615 -0.0 0.0 -0.0 10.4813 -3.28433 -20.4322 -16.5444 26.6612 -58.7983 1.18602 30.4341 -0.322625 -5.99558 0.249433 -0.72436 0.489301 12.0346 1.81715 0.0 0.0 0.0 33.4784 -16.0771 -10.0248 -4.7387 0.165896 0.708121 -6.7782 9.58161 1.00577 34.816 -0.0 -0.0 -0.0 0.0 -0.0 -16.0153 24.8187 -0.874804 -8.80936 -0.261239 -1.3254 41.2728 -17.9566 5.09879 15.2971 -0.0 -0.0 0.0 0.0 0.0 
1035.06153432 597.747 -1696.85396871 -4.52632006744 23.9293620069 4.1465808994 2.87429 0.104547 0.159472 2.8743 0.0941878 0.165801 2.87457 0.0662868 0.178794 2.87454 0.0936921 0.166082 -10.0714 11.1729 2.31327 -10.1879 19.4983 5.08422 -0.0 0.0 -0.0 4.25863 12.5267 8.58821 -41.414 -28.0297 53.8888 1.12394 -29.1068 0.291798 73.7709 -3.14075 -8.22038 0.0791985 10.3848 4.80615 -0.0 0.0 -0.0 10.4813 -3.28433 -20.4322 -16.5444 26.6612 -58.7983 1.18602 30.4341 -0.322625 -5.99558 0.249433 -0.72436 0.489301 12.0346 1.81715 0.0 0.0 0.0 33.4784 -16.0771 -10.0248 -4.7387 0.165896 0.708121 -6.7782 9.58161 1.00577 34.816 -0.0 -0.0 -0.0 0.0 -0.0 -16.0153 24.8187 -0.874804 -8.80936 -0.261239 -1.3254 41.2728 -17.9566 5.09879 15.2971 -0.0 -0.0 0.0 0.0 0.0 
